<?xml version="1.0" standalone="no"?>
<!DOCTYPE svg PUBLIC "-//W3C//DTD SVG 20010904//EN"
 "http://www.w3.org/TR/2001/REC-SVG-20010904/DTD/svg10.dtd">
<svg version="1.0" xmlns="http://www.w3.org/2000/svg"
 width="500.000000pt" height="500.000000pt" viewBox="0 0 500.000000 500.000000"
 preserveAspectRatio="xMidYMid meet">
<metadata>
Created by potrace 1.14, written by Peter Selinger 2001-2017
</metadata>
<g transform="translate(0.000000,500.000000) scale(0.100000,-0.100000)"
fill="#000000" stroke="none">
<path d="M1813 4575 c-14 -10 -23 -28 -25 -53 l-3 -37 -155 -5 c-85 -3 -163
-9 -173 -14 -43 -20 -47 -51 -47 -333 0 -289 -7 -342 -57 -485 -32 -90 -28
-99 50 -122 146 -42 225 -49 522 -50 264 -1 292 1 317 17 14 10 30 26 35 35 4
9 11 159 14 332 4 173 7 322 8 330 0 8 -3 66 -7 127 -10 160 -7 157 -207 161
l-155 3 0 30 c0 36 -39 79 -72 79 -13 0 -33 -7 -45 -15z m39 -121 c-4 -96 -12
-105 -17 -17 -2 48 7 103 17 103 2 0 2 -39 0 -86z m-72 -34 c0 -7 -51 -10
-146 -9 -80 0 -149 -2 -152 -6 -4 -4 -10 -37 -13 -73 l-6 -67 -1 67 c-3 97 -1
98 174 98 93 0 144 -4 144 -10z m445 0 c4 -6 -40 -10 -124 -10 -81 0 -131 4
-131 10 0 6 48 10 124 10 73 0 127 -4 131 -10z m-115 -200 c-9 -6 -141 -10
-322 -10 l-308 0 0 -159 c0 -97 -6 -192 -15 -245 -16 -91 -63 -226 -78 -226
-5 0 -6 8 -2 18 61 144 75 229 75 455 l0 177 333 0 c218 0 327 -4 317 -10z
m21 -79 c-47 -49 -121 -126 -164 -171 -43 -45 -81 -80 -83 -78 -5 6 315 338
325 338 4 0 -31 -40 -78 -89z m-371 -241 c0 -5 -5 -10 -11 -10 -5 0 -7 5 -4
10 3 6 8 10 11 10 2 0 4 -4 4 -10z"/>
<path d="M2816 4574 c-9 -8 -16 -32 -16 -53 0 -34 -3 -39 -32 -47 -19 -6 -42
-23 -55 -43 -23 -34 -23 -38 -23 -346 0 -172 -5 -358 -10 -414 -12 -115 -4
-147 42 -169 14 -7 42 -28 60 -46 25 -25 47 -36 79 -41 24 -3 197 -5 384 -3
374 3 380 4 409 64 14 31 16 87 16 470 0 409 -1 437 -19 472 -19 38 -55 62
-91 62 -15 0 -20 7 -20 26 0 28 -16 65 -34 76 -19 13 -73 9 -86 -7 -6 -8 -14
-32 -17 -55 l-6 -40 -77 0 -77 0 -7 42 c-9 55 -21 68 -62 68 -45 0 -74 -30
-74 -75 l0 -35 -85 0 -85 0 0 38 c0 25 -7 45 -18 55 -23 21 -76 22 -96 1z m49
-102 c0 -37 -4 -68 -10 -70 -11 -2 -20 101 -11 124 12 32 21 10 21 -54z m313
-7 c2 -64 1 -74 -13 -69 -24 10 -21 144 4 144 3 0 7 -34 9 -75z m286 5 c0 -39
-4 -73 -7 -77 -4 -3 -7 28 -7 70 0 43 3 77 8 77 4 0 7 -32 6 -70z m-310 -217
l-391 -3 -6 -273 c-8 -307 -16 -432 -28 -420 -5 5 -4 60 1 123 5 63 10 220 10
348 l0 232 403 -2 402 -3 -391 -2z m284 -153 c2 -21 -28 -56 -176 -202 -98
-98 -184 -178 -190 -178 -19 0 -212 183 -212 202 0 18 26 48 41 48 6 0 43 -31
84 -70 41 -38 80 -70 86 -70 7 0 80 68 162 151 126 126 154 150 176 147 19 -2
27 -9 29 -28z m-29 -311 c-18 -35 -90 -109 -120 -125 -46 -23 -43 -16 9 26 28
21 65 57 83 80 36 44 46 51 28 19z"/>
<path d="M4495 4580 c-30 -12 -43 -31 -47 -70 l-3 -35 -81 -3 -82 -3 -7 38
c-9 51 -31 73 -72 73 -44 0 -73 -30 -73 -75 0 -32 -3 -35 -28 -35 -32 0 -89
-49 -98 -84 -2 -11 -3 -218 -2 -459 l3 -439 37 -34 38 -34 197 -1 c409 -2 674
2 698 11 l25 10 0 499 0 500 -30 16 c-16 8 -35 15 -43 15 -9 0 -16 15 -20 41
-7 51 -26 72 -66 72 -44 0 -71 -28 -71 -75 l0 -38 -90 0 -90 0 0 29 c0 43 -9
60 -41 76 -15 8 -29 15 -31 14 -2 0 -12 -4 -23 -9z m-282 -57 c-9 -3 -13 -32
-13 -93 0 -49 -4 -92 -10 -95 -11 -7 -14 177 -3 188 3 4 13 7 22 6 10 0 12 -2
4 -6z m310 0 c-9 -3 -13 -33 -13 -99 0 -61 -4 -93 -10 -89 -11 7 -14 178 -3
188 3 4 13 7 22 6 10 0 12 -2 4 -6z m323 -1 c-3 -5 -6 -50 -7 -100 -1 -50 -6
-89 -10 -86 -10 6 -12 177 -2 187 9 10 25 9 19 -1z m-737 -105 c-2 -1 -14 -11
-26 -21 -13 -11 -23 -16 -23 -13 0 10 31 37 42 37 6 0 9 -1 7 -3z m299 -4
c-21 -2 -55 -2 -75 0 -21 2 -4 4 37 4 41 0 58 -2 38 -4z m320 0 c-21 -2 -55
-2 -75 0 -21 2 -4 4 37 4 41 0 58 -2 38 -4z m-671 -125 c-2 -18 -4 -6 -4 27 0
33 2 48 4 33 2 -15 2 -42 0 -60z m898 -68 c-4 -6 -159 -9 -398 -8 -216 0 -416
0 -444 -1 l-53 -1 -3 -307 -2 -308 -3 318 -2 317 455 0 c286 -1 454 -4 450
-10z m-119 -113 c24 -28 24 -31 24 -226 0 -225 -3 -235 -75 -247 l-40 -7 28
30 c27 29 27 30 27 166 0 75 -3 137 -7 137 -4 0 -66 -58 -138 -130 -97 -95
-138 -130 -156 -130 -23 0 -42 16 -177 141 -56 52 -64 81 -29 103 21 13 22 12
121 -78 l76 -68 26 17 c15 10 76 66 137 125 78 76 108 113 104 124 -6 14 -36
16 -246 16 -204 0 -242 -2 -255 -16 -13 -13 -16 -45 -16 -198 0 -170 1 -184
20 -201 29 -26 25 -35 -12 -29 -65 12 -68 24 -68 240 0 202 5 233 44 253 31
15 65 17 339 11 l249 -5 24 -28z m-734 -622 c16 -14 27 -25 24 -25 -15 0 -56
24 -60 36 -8 20 2 17 36 -11z"/>
<path d="M221 4563 c-11 -10 -24 -36 -29 -58 -8 -40 -8 -40 -62 -45 -62 -6
-92 -20 -114 -52 -14 -20 -16 -82 -16 -474 l0 -452 30 -25 c42 -36 83 -39 507
-35 357 3 373 4 400 24 63 46 63 48 63 492 0 441 -1 445 -59 494 -21 18 -48
29 -86 33 -53 7 -55 9 -55 37 0 34 -39 78 -70 78 -31 0 -70 -44 -70 -78 0 -29
-1 -30 -62 -36 -35 -3 -97 -4 -138 -1 -41 2 -87 4 -102 4 -23 1 -28 5 -28 27
0 28 -16 65 -34 76 -19 13 -53 9 -75 -9z m44 -133 c0 -122 -19 -131 -23 -11
-2 53 1 88 9 97 6 8 12 14 13 14 0 0 1 -45 1 -100z m455 -84 c-7 -7 -10 16
-10 75 0 111 14 125 18 18 2 -48 -2 -87 -8 -93z m-560 57 c-63 -6 -77 -12 -96
-40 -18 -26 -19 -59 -24 -433 l-6 -405 -2 403 c-2 342 0 407 13 432 20 40 41
50 100 48 37 -1 41 -2 15 -5z m428 0 c-43 -2 -113 -2 -155 0 -43 1 -8 3 77 3
85 0 120 -2 78 -3z m285 0 c-7 -2 -21 -2 -30 0 -10 3 -4 5 12 5 17 0 24 -2 18
-5z m-661 -117 c15 -18 38 -36 53 -40 31 -8 81 16 90 44 6 19 15 20 154 20 81
0 150 -3 154 -6 6 -7 -241 -274 -253 -274 -4 0 -27 16 -51 35 -58 46 -108 48
-150 6 -36 -36 -37 -66 -5 -130 26 -50 110 -138 128 -133 5 1 7 -1 4 -6 -10
-16 144 -152 172 -152 8 0 91 75 184 167 l168 167 0 -131 c0 -135 -8 -173 -48
-219 -10 -12 -28 -25 -40 -28 -24 -8 -147 -13 -412 -18 -96 -1 -163 -4 -147
-6 15 -2 27 -7 27 -12 0 -6 101 -11 233 -13 l232 -2 -277 -3 c-266 -2 -279 -1
-298 18 -19 19 -20 33 -20 363 0 353 1 366 40 380 28 10 35 7 62 -27z m566 10
c-22 -8 -58 -37 -90 -72 -89 -98 -248 -259 -248 -252 0 12 287 311 312 325 13
7 32 12 43 12 12 0 4 -5 -17 -13z m-488 -36 c0 -5 -5 -10 -11 -10 -5 0 -7 5
-4 10 3 6 8 10 11 10 2 0 4 -4 4 -10z m-11 -213 c-2 -1 -15 -11 -28 -22 l-24
-20 12 23 c6 12 19 22 28 22 9 0 14 -1 12 -3z m578 -399 c-3 -8 -6 -5 -6 6 -1
11 2 17 5 13 3 -3 4 -12 1 -19z m-54 -95 c-7 -2 -19 -2 -25 0 -7 3 -2 5 12 5
14 0 19 -2 13 -5z"/>
<path d="M462 3083 c-38 -7 -88 -66 -96 -112 l-6 -41 -148 0 c-129 0 -151 -3
-179 -20 l-33 -20 0 -460 0 -460 33 -20 c31 -19 51 -20 462 -20 388 0 433 2
455 17 14 9 30 24 35 32 6 9 13 161 17 361 4 190 10 377 13 416 8 84 -7 123
-58 154 -28 17 -51 20 -183 20 l-151 0 -6 41 c-3 23 -16 52 -29 66 -22 24 -78
55 -95 52 -4 -1 -18 -4 -31 -6z m-19 -75 c-4 -7 -10 -35 -14 -63 l-6 -50 -2
43 c-1 39 12 82 25 82 3 0 2 -6 -3 -12z m-224 -137 c-163 -7 -184 -15 -192
-75 -4 -30 -4 -30 -5 6 -2 29 4 41 24 57 25 19 39 21 173 19 l146 -2 -146 -5z
m610 -1 c-53 -4 -123 -4 -155 0 -43 5 -18 7 96 7 147 0 150 0 59 -7z m-789
-552 c0 -167 -4 -269 -10 -273 -7 -4 -10 92 -10 282 0 190 4 283 10 273 6 -9
10 -127 10 -282z m205 -158 c-71 -71 -131 -127 -134 -124 -5 4 249 253 259
254 3 0 -54 -58 -125 -130z m-145 -144 c0 -2 -8 -10 -17 -17 -16 -13 -17 -12
-4 4 13 16 21 21 21 13z"/>
<path d="M1709 3067 c-31 -13 -70 -33 -87 -45 -16 -12 -43 -22 -59 -22 -96 0
-192 -76 -211 -166 -13 -60 -2 -148 21 -171 14 -14 19 -14 51 5 l36 21 -14
-27 c-8 -15 -26 -43 -41 -62 -73 -98 -84 -325 -21 -454 14 -28 42 -71 62 -94
l37 -43 -32 -33 c-38 -40 -42 -87 -9 -110 37 -26 64 -19 100 23 l32 39 36 -18
c136 -69 329 -68 467 3 30 16 30 15 69 -24 44 -45 71 -49 102 -16 31 33 27 58
-12 96 l-34 33 43 59 c64 87 87 155 93 271 7 147 -16 210 -127 358 -20 27 -21
31 -5 22 10 -6 30 -22 43 -36 31 -33 44 -33 70 0 16 21 21 41 21 88 0 136 -94
236 -221 236 -22 0 -39 3 -39 8 0 4 -28 23 -62 42 -57 31 -72 35 -158 37 -82
3 -103 0 -151 -20z m211 -28 c54 -12 110 -38 110 -50 0 -5 -11 -13 -23 -18
-13 -5 -36 -24 -51 -41 -24 -30 -25 -34 -11 -50 8 -9 15 -21 15 -26 0 -5 -52
-9 -115 -9 -63 0 -115 2 -115 5 0 3 7 15 15 27 13 19 13 23 -4 45 -11 13 -35
33 -55 43 -20 11 -36 23 -36 26 0 8 73 38 122 49 47 11 96 11 148 -1z m-295
-100 c14 -7 7 -8 -28 -4 -85 9 -144 -27 -183 -110 -25 -54 -33 -40 -10 16 17
39 60 83 96 98 32 12 99 13 125 0z m570 -5 c20 -16 20 -16 -3 -9 -33 10 -111
7 -152 -5 -60 -17 -55 -6 7 15 52 19 123 18 148 -1z m-510 -103 c-3 -6 -14
-11 -23 -11 -15 1 -15 2 2 15 21 16 32 13 21 -4z m340 -1 c3 -6 -1 -7 -9 -4
-18 7 -21 14 -7 14 6 0 13 -4 16 -10z m-100 -29 c17 -4 -11 -6 -65 -6 -148 0
-249 -42 -339 -141 -86 -94 -126 -207 -119 -335 2 -37 0 -63 -4 -56 -15 24 -8
164 11 226 30 98 137 223 230 270 84 44 201 61 286 42z m-102 -138 c-18 -6
-16 -50 2 -57 8 -3 22 -3 30 0 18 7 20 54 3 54 -6 0 -8 3 -5 6 9 9 127 -17
127 -27 0 -5 8 -10 18 -10 16 -1 16 -2 0 -6 -22 -6 -24 -43 -3 -43 9 0 18 7
21 15 9 21 17 19 52 -15 18 -16 37 -30 44 -30 7 0 0 -11 -17 -24 -27 -22 -29
-26 -14 -41 19 -20 40 -12 56 20 8 19 8 23 0 19 -7 -4 -6 -1 1 7 11 12 14 12
22 -1 53 -82 49 -296 -6 -355 -13 -14 -24 -29 -25 -33 -4 -20 -79 -92 -100
-96 -8 -1 -30 -12 -49 -24 -92 -58 -262 -37 -365 45 -37 29 -90 101 -82 110 3
3 -1 24 -9 46 -24 69 -22 163 6 231 21 52 24 56 32 37 11 -31 43 -24 43 9 0
19 -5 25 -22 24 -18 0 -20 2 -10 16 14 20 72 70 81 70 3 0 6 -7 6 -15 0 -18
36 -20 46 -3 4 6 -1 17 -10 24 -12 8 -14 14 -6 19 19 12 135 43 140 37 3 -2
-1 -7 -7 -9z m-336 -355 c-3 -8 -6 -5 -6 6 -1 11 2 17 5 13 3 -3 4 -12 1 -19z"/>
<path d="M1817 2543 c-4 -3 -7 -34 -7 -68 0 -49 -4 -66 -20 -80 -28 -25 -25
-65 8 -108 32 -44 56 -53 88 -37 19 11 27 10 48 -4 49 -32 71 -18 60 39 -5 29
-14 40 -45 56 -22 10 -39 26 -39 35 0 8 -7 17 -15 20 -11 5 -15 21 -15 61 0
30 -5 63 -10 74 -10 19 -40 26 -53 12z"/>
<path d="M1524 2366 c-9 -24 3 -46 26 -46 17 0 21 5 18 27 -3 31 -34 44 -44
19z"/>
<path d="M2124 2365 c-17 -44 33 -62 53 -20 6 14 7 23 2 19 -5 -3 -9 0 -9 5 0
17 -40 13 -46 -4z"/>
<path d="M1564 2206 c-8 -21 3 -36 27 -36 15 0 20 6 17 22 -4 27 -35 37 -44
14z"/>
<path d="M2078 2203 c-13 -16 -2 -33 22 -33 18 0 33 14 36 35 2 14 -46 12 -58
-2z"/>
<path d="M1664 2095 c-4 -9 -2 -21 4 -27 15 -15 44 -1 40 19 -4 23 -36 29 -44
8z"/>
<path d="M1973 2094 c-3 -8 -1 -20 5 -26 16 -16 42 -2 42 22 0 24 -38 28 -47
4z"/>
<path d="M1817 2074 c-13 -14 -7 -43 12 -53 23 -13 45 8 39 36 -3 18 -38 30
-51 17z"/>
<path d="M4480 3077 c-38 -13 -80 -67 -80 -103 l0 -24 -147 0 c-163 0 -198 -9
-237 -63 -20 -27 -21 -42 -24 -425 -2 -218 0 -417 3 -441 6 -37 16 -54 62 -97
l54 -52 57 20 c53 18 81 19 373 18 333 -1 394 5 437 43 l22 20 0 442 c0 434 0
443 -21 469 -41 53 -86 66 -219 66 -118 0 -120 0 -120 23 0 26 -29 72 -56 91
-30 21 -66 25 -104 13z m-23 -209 c-2 -24 -4 -5 -4 42 0 47 2 66 4 43 2 -24 2
-62 0 -85z m-63 -8 c7 -43 36 -102 68 -136 51 -57 161 -25 204 58 8 15 14 48
14 73 l0 47 106 -4 c102 -3 107 -4 130 -31 17 -20 24 -40 24 -70 l0 -41 -32
31 c-61 57 -101 66 -154 34 -17 -10 -89 -83 -160 -162 -71 -79 -168 -184 -216
-234 -87 -89 -88 -90 -88 -57 l0 32 -75 0 -76 0 3 -67 3 -68 38 -3 37 -3 -34
-40 c-27 -33 -39 -62 -61 -150 -15 -60 -31 -109 -35 -109 -4 0 -15 9 -26 21
-18 20 -19 42 -19 446 l0 425 28 24 c27 23 34 24 171 24 l143 0 7 -40z m426
-77 c-8 -3 -27 -15 -42 -25 -16 -11 -28 -15 -28 -9 0 15 42 41 65 40 14 0 16
-2 5 -6z m-56 -122 l29 -30 -27 5 c-21 3 -26 1 -20 -8 4 -7 -4 -3 -18 10 -13
12 -30 22 -36 22 -15 0 -15 6 -2 31 13 23 31 16 74 -30z m-69 -90 c16 -22 16
-24 2 -12 -10 8 -20 11 -24 7 -3 -3 -17 1 -30 9 -13 9 -28 13 -33 10 -16 -10
-12 7 6 26 15 17 18 17 38 2 12 -9 31 -28 41 -42z m-116 -35 c-96 -101 -351
-356 -356 -356 -9 0 61 76 205 223 75 75 140 137 145 137 6 0 8 -2 6 -4z m361
-365 c0 -219 14 -205 -216 -209 l-178 -3 35 28 c31 25 227 215 318 308 19 19
36 35 38 35 1 0 3 -72 3 -159z m-710 -51 c6 -11 8 -26 4 -32 -4 -6 -3 -8 4 -4
6 3 14 2 17 -4 4 -6 1 -9 -7 -8 -7 2 -12 -4 -12 -13 1 -11 -5 -15 -16 -12 -19
5 -45 -28 -33 -41 3 -3 -1 -6 -10 -6 -9 0 -17 1 -17 3 0 4 29 104 35 125 6 18
23 15 35 -8z"/>
<path d="M4140 2765 c0 -45 4 -65 13 -66 30 -3 128 -1 132 2 5 6 7 39 6 87
l-1 42 -75 0 -75 0 0 -65z"/>
<path d="M4147 2614 c-4 -4 -7 -34 -7 -66 l0 -58 75 0 76 0 -3 63 -3 62 -65 3
c-36 2 -69 0 -73 -4z"/>
<path d="M4860 2190 c0 -5 5 -10 10 -10 6 0 10 5 10 10 0 6 -4 10 -10 10 -5 0
-10 -4 -10 -10z"/>
<path d="M4777 2123 c-12 -11 -8 -23 8 -23 8 0 15 7 15 15 0 16 -12 20 -23 8z"/>
<path d="M4860 2115 c0 -8 5 -15 10 -15 6 0 10 7 10 15 0 8 -4 15 -10 15 -5 0
-10 -7 -10 -15z"/>
<path d="M4690 2035 c0 -8 5 -15 10 -15 6 0 10 7 10 15 0 8 -4 15 -10 15 -5 0
-10 -7 -10 -15z"/>
<path d="M4777 2043 c-12 -11 -8 -23 8 -23 8 0 15 7 15 15 0 16 -12 20 -23 8z"/>
<path d="M4860 2035 c0 -9 5 -15 11 -13 6 2 11 8 11 13 0 5 -5 11 -11 13 -6 2
-11 -4 -11 -13z"/>
<path d="M3144 3071 c-31 -14 -64 -60 -64 -91 0 -25 -6 -30 -52 -45 -235 -76
-388 -284 -388 -526 0 -230 160 -443 383 -511 58 -17 87 -20 183 -16 113 4
115 5 208 52 151 76 244 192 281 348 43 181 -9 383 -128 502 -71 72 -159 127
-236 151 -44 13 -60 22 -57 32 7 17 -16 74 -36 90 -21 18 -69 24 -94 14z m74
-53 c7 -7 12 -22 12 -35 0 -21 -4 -23 -50 -23 -46 0 -50 2 -50 23 0 30 18 47
50 47 14 0 31 -5 38 -12z m82 -127 l25 -12 -25 6 c-117 26 -221 14 -328 -36
-153 -74 -253 -227 -272 -419 l-9 -85 3 90 c4 104 30 180 92 272 66 94 161
160 277 189 59 15 199 12 237 -5z m-104 -324 c-2 -49 -6 -63 -19 -65 -15 -3
-17 6 -17 71 0 40 3 77 7 81 16 16 30 -28 29 -87z m8 -125 c3 -5 -3 -18 -14
-29 -10 -12 -17 -23 -14 -25 2 -3 -6 -4 -19 -3 -25 2 -34 29 -17 50 13 16 56
20 64 7z m-146 -18 c42 -12 22 -24 -38 -24 -33 0 -60 4 -60 9 0 18 54 26 98
15z m322 -4 c24 -15 2 -25 -52 -23 -53 1 -64 6 -53 22 8 13 84 14 105 1z
m-255 -99 c7 -13 -53 -81 -71 -81 -22 0 -17 16 17 55 32 36 44 42 54 26z m154
-32 c35 -43 35 -55 2 -44 -21 6 -63 64 -55 77 9 15 21 8 53 -33z"/>
<path d="M4580 1616 c-11 -19 -37 -45 -56 -56 -18 -12 -34 -25 -34 -30 0 -4
-11 -11 -25 -14 -14 -4 -43 -22 -64 -42 -51 -45 -69 -110 -48 -172 l14 -41
-199 -3 -200 -3 -24 -28 c-31 -36 -30 -68 1 -105 26 -32 41 -102 114 -536 17
-101 37 -189 47 -206 35 -58 49 -60 408 -60 227 0 333 4 351 12 45 20 62 65
99 262 34 177 36 200 36 392 l0 204 -503 0 c-378 0 -506 -3 -515 -12 -7 -7
-12 -9 -12 -6 0 4 7 14 16 22 14 14 74 16 515 16 l499 0 0 25 0 25 -149 0
-150 0 6 35 c4 24 22 51 60 89 34 34 53 61 51 72 -2 10 -29 33 -62 52 -32 19
-65 47 -75 64 -26 48 -51 78 -66 78 -7 0 -23 -16 -35 -34z m29 -52 c-7 -9 -12
-30 -10 -47 3 -29 2 -30 -16 -17 -10 8 -20 16 -22 17 -3 2 8 17 24 33 30 32
47 41 24 14z m78 -107 c-12 -13 -26 -21 -30 -19 -5 2 1 15 14 28 12 13 25 21
30 18 4 -2 -2 -15 -14 -27z m-172 13 c-3 -5 -12 -10 -19 -10 -7 0 -27 -14 -44
-31 -26 -26 -32 -39 -32 -75 0 -23 5 -55 10 -71 l10 -28 -20 24 c-28 33 -27
109 2 146 26 33 111 75 93 45z m-461 -485 c4 -45 3 -51 -3 -25 -17 70 -21 104
-12 95 5 -6 12 -37 15 -70z m159 -40 c-3 -9 -8 -14 -10 -11 -3 3 -2 9 2 15 9
16 15 13 8 -4z m291 6 c3 -5 -1 -11 -9 -15 -9 -3 -15 0 -15 9 0 16 16 20 24 6z
m-437 -78 c-3 -10 -5 -2 -5 17 0 19 2 27 5 18 2 -10 2 -26 0 -35z m48 -256 c9
-54 15 -100 13 -103 -6 -5 -59 295 -57 321 1 22 18 -61 44 -218z m22 -154 c-3
-10 -5 -4 -5 12 0 17 2 24 5 18 2 -7 2 -21 0 -30z"/>
<path d="M196 1519 c-14 -11 -26 -31 -26 -43 0 -20 -7 -25 -42 -30 -53 -9
-101 -38 -116 -71 -9 -19 -12 -158 -12 -496 0 -516 0 -513 60 -544 24 -13 92
-15 438 -15 l409 0 34 23 c19 13 39 38 46 57 8 25 12 163 12 483 1 394 -1 453
-15 483 -23 48 -65 74 -129 81 -49 5 -55 8 -55 29 0 23 -42 64 -65 64 -24 0
-65 -41 -65 -66 l0 -24 -179 0 -179 0 -7 30 c-7 32 -38 60 -66 60 -9 0 -28 -9
-43 -21z m46 -48 c-9 -5 -13 -31 -11 -85 1 -42 -1 -79 -4 -82 -8 -8 -16 54
-13 91 2 17 4 42 5 58 1 19 6 27 19 27 13 0 14 -2 4 -9z m485 -128 c-2 -27 -3
-5 -3 47 0 52 1 74 3 48 2 -27 2 -69 0 -95z m-594 38 c-18 -3 -42 -14 -53 -23
-20 -17 -20 -29 -20 -485 -1 -317 -4 -462 -11 -451 -6 11 -9 180 -7 467 l3
449 24 26 c18 19 34 26 60 25 l36 -2 -32 -6z m450 2 c-45 -2 -122 -2 -170 0
-48 1 -11 3 82 3 94 0 133 -2 88 -3z m295 0 c-10 -2 -26 -2 -35 0 -10 3 -2 5
17 5 19 0 27 -2 18 -5z m-283 -197 c115 -30 203 -104 257 -213 29 -60 32 -75
32 -152 -1 -122 -27 -185 -111 -268 -69 -69 -119 -96 -211 -113 -60 -11 -135
-2 -197 22 -54 21 -140 85 -167 124 -58 84 -73 132 -73 234 0 83 3 102 27 150
86 175 267 263 443 216z"/>
<path d="M403 1121 c-96 -33 -163 -102 -204 -210 -55 -147 31 -335 180 -392
123 -47 272 -19 351 67 129 140 126 325 -7 461 -83 84 -208 113 -320 74z m173
-56 c149 -44 226 -219 160 -360 -53 -114 -185 -176 -299 -141 -94 28 -150 86
-183 186 -23 70 -9 143 41 215 36 54 73 80 139 101 55 17 83 17 142 -1z"/>
<path d="M430 999 c-137 -55 -171 -223 -65 -325 96 -93 239 -74 310 41 63 102
21 229 -94 282 -31 15 -116 16 -151 2z m135 -63 c44 -19 75 -69 75 -121 0
-106 -122 -171 -211 -112 -144 96 -25 300 136 233z"/>
<path d="M462 883 c-7 -3 -19 -18 -27 -34 -26 -49 -1 -100 56 -114 36 -9 89
36 89 75 0 42 -35 80 -73 79 -18 0 -38 -3 -45 -6z"/>
<path d="M1588 1513 c-9 -10 -18 -27 -20 -38 -3 -18 -12 -20 -106 -23 l-102
-3 2 -562 3 -562 515 0 515 0 3 73 c2 54 0 72 -10 72 -7 0 -23 3 -35 6 -19 5
-22 1 -25 -28 l-3 -33 -452 -3 -453 -2 0 490 0 490 70 0 70 0 0 -36 c0 -83 58
-151 119 -139 29 5 53 24 45 36 -3 5 0 8 8 7 9 -2 14 15 16 65 l3 67 324 0
325 0 0 30 0 30 -344 0 -344 0 -7 30 c-4 17 -15 35 -25 40 -29 16 -75 12 -92
-7z m56 -45 c-4 -7 -7 -30 -6 -53 1 -22 -2 -56 -7 -75 -7 -29 -9 -20 -10 53
-1 73 2 87 15 87 9 0 12 -5 8 -12z m86 -88 c0 -5 -5 -10 -11 -10 -5 0 -7 5 -4
10 3 6 8 10 11 10 2 0 4 -4 4 -10z m-7 -65 c4 -8 3 -16 -1 -19 -4 -3 -9 4 -9
15 -2 23 3 25 10 4z m-16 -60 c0 -8 -4 -12 -9 -9 -5 3 -6 10 -3 15 9 13 12 11
12 -6z"/>
<path d="M2913 1500 c-13 -5 -25 -21 -29 -37 -14 -63 -13 -63 -57 -63 -50 0
-104 -30 -117 -66 -6 -15 -10 -197 -10 -447 0 -401 1 -424 20 -454 38 -63 38
-63 470 -63 435 0 439 1 466 65 20 49 21 850 0 898 -17 43 -55 67 -116 74 -44
5 -50 8 -50 30 0 29 -42 73 -70 73 -29 0 -70 -44 -70 -74 0 -18 -7 -27 -23
-31 -17 -5 -241 -1 -299 4 -5 1 -8 12 -8 26 0 30 -41 75 -67 74 -10 0 -28 -4
-40 -9z m36 -135 c-3 -110 -22 -127 -27 -23 -3 59 9 118 23 118 4 0 5 -43 4
-95z m470 0 c-2 -115 -19 -120 -19 -6 0 57 4 91 11 91 6 0 9 -31 8 -85z m-615
-26 c-37 -10 -44 -29 -44 -111 l0 -58 428 -2 427 -3 3 -336 c2 -271 0 -338
-11 -347 -11 -9 -506 -16 -839 -12 -17 0 -18 27 -18 418 0 459 1 463 58 461
27 -1 26 -1 -4 -10z m449 4 c-35 -2 -91 -2 -125 0 -35 2 -7 3 62 3 69 0 97 -1
63 -3z"/>
<path d="M2850 1001 c0 -81 5 -85 96 -79 l49 3 0 70 0 70 -72 3 -73 3 0 -70z"/>
<path d="M3115 1047 c-4 -13 -5 -46 -3 -73 l3 -49 70 0 70 0 0 70 0 70 -67 3
c-64 3 -68 2 -73 -21z"/>
<path d="M3378 1058 c-2 -7 -2 -40 1 -73 l6 -60 65 0 65 0 0 70 0 70 -66 3
c-48 2 -68 -1 -71 -10z"/>
<path d="M2845 857 c-4 -18 -5 -49 -3 -68 l3 -34 78 -3 78 -3 -3 68 -3 68 -72
3 -72 3 -6 -34z"/>
<path d="M3114 877 c-3 -8 -4 -39 -2 -68 l3 -54 70 0 70 0 0 65 0 65 -68 3
c-51 2 -69 -1 -73 -11z"/>
<path d="M3378 868 c-2 -13 -1 -45 0 -71 l4 -48 66 3 67 3 3 68 3 67 -70 0
c-65 0 -70 -2 -73 -22z"/>
<path d="M2847 684 c-13 -14 -8 -121 7 -133 9 -7 40 -11 78 -9 l63 3 0 70 0
70 -70 3 c-39 1 -74 0 -78 -4z"/>
<path d="M3117 684 c-13 -14 -8 -121 7 -133 9 -7 38 -11 73 -9 l58 3 0 70 0
70 -65 3 c-36 2 -69 0 -73 -4z"/>
<path d="M3377 668 c-2 -13 -2 -45 2 -73 l6 -50 65 0 65 0 0 70 0 70 -66 3
c-62 3 -67 1 -72 -20z"/>
<path d="M2125 1359 c-11 -7 -142 -134 -291 -283 -211 -212 -274 -281 -288
-316 -36 -90 -74 -209 -68 -214 3 -3 14 -6 24 -6 10 0 17 -6 15 -12 -1 -7 4
-13 11 -12 38 3 43 5 37 14 -3 5 0 7 9 4 8 -3 47 7 88 23 72 27 77 31 378 332
225 224 300 305 287 308 -10 3 -17 10 -16 16 5 39 -6 63 -44 103 -33 35 -51
46 -82 50 -22 2 -49 -1 -60 -7z m35 -50 c0 -5 -4 -7 -10 -4 -5 3 -10 1 -10 -4
0 -6 -5 -11 -11 -11 -8 0 -8 5 1 15 14 17 30 20 30 4z m-46 -68 c16 -18 16
-19 -8 -23 -17 -3 -23 -1 -19 6 4 6 0 6 -9 -1 -22 -18 -31 -3 -11 19 20 23 26
23 47 -1z m-119 -88 c-22 -20 -116 -111 -210 -202 -166 -162 -166 -161 30 37
110 111 204 202 210 202 5 0 -8 -16 -30 -37z m315 33 c0 -2 -8 -10 -17 -17
-16 -13 -17 -12 -4 4 13 16 21 21 21 13z m-684 -458 l19 -23 -24 20 -24 20 12
-22 c14 -27 14 -55 0 -30 -6 9 -15 15 -20 12 -5 -4 -6 -12 -2 -18 11 -18 12
-38 2 -31 -5 3 -6 10 -3 16 4 6 2 8 -4 5 -5 -4 -8 -17 -4 -29 4 -15 2 -19 -7
-13 -20 12 5 115 28 115 4 0 16 -10 27 -22z"/>
<path d="M1492 1138 c-18 -18 -16 -158 4 -186 14 -20 24 -22 98 -22 50 0 87 5
94 12 7 7 12 44 12 98 l0 85 -58 -64 c-42 -47 -63 -63 -75 -58 -23 9 -22 36 1
32 11 -2 37 19 71 56 l54 59 -94 0 c-61 0 -99 -4 -107 -12z"/>
<path d="M2032 757 c-19 -20 -22 -35 -22 -104 0 -66 4 -85 21 -107 11 -14 27
-26 35 -26 8 0 24 -9 36 -20 16 -15 37 -20 82 -21 81 -2 87 -1 116 20 18 13
27 31 32 67 11 79 12 86 10 152 l-2 62 -143 0 c-137 0 -144 -1 -165 -23z m183
-109 c-27 -29 -52 -57 -57 -62 -9 -11 -58 31 -58 51 0 18 10 16 32 -4 18 -16
21 -14 65 36 31 36 49 49 56 42 7 -7 -5 -27 -38 -63z"/>
</g>
</svg>
